<svg width="100" height="100" fill="none" xmlns="http://www.w3.org/2000/svg"><circle cx="50" cy="50" r="50" fill="#768E77"/><path d="M48.907 83.062c5.756.813 14.758.956 19.217-3.573 1.385-1.398.154-4.395-.173-6.079-.443-2.34-1.2-10.72-1.483-13.078-.142-1.17-.408-2.34-.213-3.533.376-2.3 1.572-4.14 3.206-5.717a22.232 22.232 0 0 0 2.856-3.373c3.144-4.605 4.777-9.612 3.843-15.257a17.886 17.886 0 0 0-3.728-8.616c-2.697-3.247-6.279-5.101-10.268-6.195a32.113 32.113 0 0 0-10.995-.992 27.685 27.685 0 0 0-11.512 3.341c-6.908 3.824-9.25 11.738-7.151 17.688a5.001 5.001 0 0 1-.306 4.404c-1.058 1.75-2.143 3.488-3.219 5.23-.272.387-.504.8-.695 1.233-.38 1.036-.053 1.746 1 2.059.709.232 1.444.37 2.188.41.514 0 .593.233.443.675a40.576 40.576 0 0 0-.443 1.71c-.208.76 0 1.216.708 1.524.309.115.594.286.842.505.252.245.257.446-.053.66-1.165.867-1.076 1.841.212 2.533.424.215.763.568.963 1.002.2.434.25.923.14 1.388-.084.447-.226.84-.346 1.255-.597 2.153.443 3.837 2.657 4.096a10.04 10.04 0 0 0 5.725-.934c1.156-.567 1.66-.34 1.878.943.34 1.97.925 9.97 1.186 11.948.19 1.42.107 3.381 1.55 4.154.618.31 1.285.51 1.97.59z" fill="#A0B19F"/><path d="M54.487 58.94c-2.152-1.42-4.428-2.966-5.473-5.33-.943-2.085-.797-4.506-.372-6.761a29.79 29.79 0 0 1 2.405-7.303c.916-1.903 2.045-3.734 2.559-5.785.824-3.305-.478-6.762-4.074-7.222-2.745-.348-4.653.782-6.478 2.68-1.824 1.898-2.098 4.802-1.682 7.446a9.463 9.463 0 0 0 1.325 3.629 9.376 9.376 0 0 0 2.66 2.785c5.977 3.872 13.695-.179 17.309-5.405 3.077-4.466 2.878-9.272.318-13.94-1.532-2.792-4.193-4.85-7.146-5.998-6.54-2.537-14.355-1.148-20.369 2.193-7.115 3.98-9.524 12.189-7.367 18.362a5.166 5.166 0 0 1-.32 4.569 495.348 495.348 0 0 1-3.338 5.427 6.69 6.69 0 0 0-.713 1.277c-.398 1.077-.057 1.814 1.032 2.135a8.786 8.786 0 0 0 2.271.447c.532 0 .616.241.483.697-.173.59-.319 1.188-.478 1.786-.217.786 0 1.26.735 1.581.323.12.623.297.885.523.262.25.266.447-.057.683-1.209.894-1.116 1.908.221 2.631.44.224.79.59.998 1.04.207.45.258.957.145 1.44-.085.446-.235.866-.355 1.299-.624 2.233-.097 5.337 2.746 6.28 2.245.746 4.051-.04 5.929-.965 1.195-.59 1.718-.353 1.948.978.23 1.331.885 10.416 1.328 13.454" stroke="#fff" stroke-width="1.5" stroke-linecap="round" stroke-linejoin="round"/><path d="M60.354 47.122c4.069-1.648 5.477-3.703 4.379-8.084-.824-3.292-3.206-5.557-6.43-6.46-2.82-.79-3.028 2.574-5.468 3.413a2.556 2.556 0 0 1-2.577-.446c-.558-.532-.77-1.34-1.169-1.992-2.688-4.53-7.527-.402-9.741 2.233-2.214 2.635-4.353 7.955-2.214 11.193 1.696 2.555 4.237 2.56 5.783.228 1.651-2.48 2.705-5.297 5.778-6.289.748-.241 1.634-.353 2.272.116.757.554.823 1.64 1.036 2.564.217.974.68 1.875 1.346 2.615a5.725 5.725 0 0 0 2.448 1.606c1.08.317 2.86-.01 4.557-.697z" stroke="#fff" stroke-width="1.5" stroke-linecap="round" stroke-linejoin="round"/></svg>