<svg width="100" height="100" fill="none" xmlns="http://www.w3.org/2000/svg"><circle cx="50" cy="50" r="50" fill="#AA6039"/><path d="M45.545 82.6a1.462 1.462 0 0 1-.305-.257 2.868 2.868 0 0 1-.593-1.198c-1.147-3.83-1.254-6.944-1.993-10.88-.275-1.451-.666-2.75-1.04-4.194-.223-.843-.627-1.004-1.426-.898a50.87 50.87 0 0 1-6.444.447c-2.114 0-3.325-1.169-3.437-3.261a7.929 7.929 0 0 1 .305-3.034 2.116 2.116 0 0 0-.34-2.206 1.457 1.457 0 0 1-.043-2.03c.267-.35.43-.615-.132-.898-.817-.422-.946-1.105-.533-1.903.069-.136.128-.277.176-.421.606-1.688.597-1.688-1.138-2.266-2.23-.726-2.664-2.017-1.105-3.746 2.114-2.363 5.027-4.375 5.89-7.497.653-2.358.86-4.83 1.401-7.219 2.075-9.18 8.824-10.576 13.567-11.066 3.544-.367 7.059-.257 10.659-.257 10.607 0 17.184 12.703 17.395 18.07.253 5.969-2.217 10.9-6.174 15.242-2.148 2.337-4.129 4.067-4.455 7.353-.266 2.675.232 5.198.408 7.856.099 1.489.752 3.058 1.138 4.493.542 1.995 2.119 3.527-.48 5.413-2.282 1.653-6.209 3.155-9.358 3.906-3.148.751-6.74.865-9.953.87-.69.05-1.38-.095-1.99-.418z" fill="#C0896C"/><path d="M58.125 42.82c-.323 1.78-.62 3.375.206 4.983.691 1.358 2.08 2.257 3.531 2.78" fill="#C0896C"/><path d="M58.125 42.82c-.323 1.78-.62 3.375.206 4.983.691 1.358 2.08 2.257 3.531 2.78" stroke="#fff" stroke-width="1.5" stroke-linecap="round" stroke-linejoin="round"/><path d="M46.1 43.661a2.31 2.31 0 0 1-1.013-.402 2.255 2.255 0 0 1-.706-.817 2.689 2.689 0 0 1-.157-1.868 2.736 2.736 0 0 1 1.106-1.528c3.18-1.738 6.616 1.915 7.789 4.506" fill="#C0896C"/><path d="M46.1 43.661a2.31 2.31 0 0 1-1.013-.402 2.255 2.255 0 0 1-.706-.817 2.689 2.689 0 0 1-.157-1.868 2.736 2.736 0 0 1 1.106-1.528c3.18-1.738 6.616 1.915 7.789 4.506" stroke="#fff" stroke-width="1.5" stroke-linecap="round" stroke-linejoin="round"/><path d="M55.773 29.647a1.996 1.996 0 0 0-.659-.733 2.043 2.043 0 0 0-.935-.335 1.78 1.78 0 0 0-.968.202c-.297.157-.54.395-.703.684-.43.844 0 1.924.687 2.578.688.654 1.633 1.008 2.488 1.46.855.451 1.718 1.071 2.002 1.978" fill="#C0896C"/><path d="M55.773 29.647a1.996 1.996 0 0 0-.659-.733 2.043 2.043 0 0 0-.935-.335 1.78 1.78 0 0 0-.968.202c-.297.157-.54.395-.703.684-.43.844 0 1.924.687 2.578.688.654 1.633 1.008 2.488 1.46.855.451 1.718 1.071 2.002 1.978" stroke="#fff" stroke-width="1.5" stroke-linecap="round" stroke-linejoin="round"/><path d="M42.432 83.573c-.958-3.207-2.767-13.02-3.308-15.108-.24-.932-.679-1.089-1.538-.975a54.427 54.427 0 0 1-6.985.473c-2.281 0-3.592-2.531-3.712-4.78a8.587 8.587 0 0 1 .33-3.278 2.29 2.29 0 0 0-.369-2.388 1.57 1.57 0 0 1-.043-2.19c.288-.38.456-.666-.146-.974-.88-.456-1.022-1.19-.576-2.05.078-.153.142-.31.194-.473.653-1.818.644-1.83-1.233-2.447-2.406-.784-2.878-2.177-1.194-4.046 1.602-1.78 3.316-3.459 5.039-5.113 1.083-1.046 1.413-2.62 1.654-4.033.292-1.688.98-7.172 1.181-8.201 2.578-12.893 16.325-11.746 19.453-11.345 30.146 3.869 15.002 20.812 2.427 19.099-3.097-.422-6.873-1.844-7.187-5.396-.572-6.35 7.247-5.8 9.318-5.607 7.866.726 9.941 7.45 9.422 11.619-.907 7.281-11.093 5.931-16.373 9.745-3.763 2.717-1.547 7.172 2.947 7.274" stroke="#fff" stroke-width="1.5" stroke-linecap="round" stroke-linejoin="round"/><path d="M65.165 42.805c.252.465.35.996.28 1.519-.035.261-.131.511-.28.73a1.74 1.74 0 0 1-.58.535c-.58.3-1.288.198-1.933.207a4.102 4.102 0 0 0-2.462.768c-.35.26-.63.602-.814.994a2.576 2.576 0 0 0-.238 1.254" fill="#C0896C"/><path d="M65.165 42.805c.252.465.35.996.28 1.519-.035.261-.131.511-.28.73a1.74 1.74 0 0 1-.58.535c-.58.3-1.288.198-1.933.207a4.102 4.102 0 0 0-2.462.768c-.35.26-.63.602-.814.994a2.576 2.576 0 0 0-.238 1.254" stroke="#fff" stroke-width="1.5" stroke-linecap="round" stroke-linejoin="round"/><path d="M42.602 34.664c.048.423.234.82.53 1.133.295.312.684.522 1.11.601.486.127 2.127.384 1.796 2.227" fill="#fff"/><path d="M42.602 34.664c.048.423.234.82.53 1.133.295.312.684.522 1.11.601.486.127 2.127.384 1.796 2.227" stroke="#fff" stroke-width="1.5" stroke-linecap="round" stroke-linejoin="round"/><path d="M48.442 52.276c-.206-.844-.034-2.156.606-2.772 2.006-1.928 4.82-.57 5.048.987" fill="#C0896C"/><path d="M48.442 52.276c-.206-.844-.034-2.156.606-2.772 2.006-1.928 4.82-.57 5.048.987" stroke="#fff" stroke-width="1.5" stroke-linecap="round" stroke-linejoin="round"/><path d="M65.242 35.716c.241-.145.516-.227.8-.236 1.404-.127 3.148-.122 3.677 1.747.24.843-.511 2.354-1.882 2.379" fill="#C0896C"/><path d="M65.242 35.716c.241-.145.516-.227.8-.236 1.404-.127 3.148-.122 3.677 1.747.24.843-.511 2.354-1.882 2.379" stroke="#fff" stroke-width="1.5" stroke-linecap="round" stroke-linejoin="round"/><path d="M52.593 47.054c.137-.395.358-.758.648-1.063.29-.306.643-.547 1.036-.709.223-.092.43 1.11.056 2.22a3.31 3.31 0 0 1-1.577 1.755 2.69 2.69 0 0 1-.163-2.203zM66.633 45.605c.403.136.772.354 1.083.639.312.285.559.63.726 1.015.09.22-1.134.422-2.26.055a3.324 3.324 0 0 1-1.791-1.548 2.813 2.813 0 0 1 2.242-.16zM68.743 33.835c.138-.395.359-.757.648-1.063.29-.305.64-.548 1.031-.713.224-.088.43 1.114.056 2.22a3.31 3.31 0 0 1-1.572 1.759 2.67 2.67 0 0 1-.163-2.203zM52.866 40.07c.213-.36.503-.674.848-.917.346-.244.74-.413 1.158-.495.236-.047.21 1.172-.39 2.185a3.361 3.361 0 0 1-1.895 1.422 2.69 2.69 0 0 1 .279-2.194zM42.561 36.64a3.084 3.084 0 0 1 2.47 0c.22.102-.532 1.072-1.623 1.549a3.435 3.435 0 0 1-2.385.055c.129-.358.332-.685.597-.962.265-.276.586-.494.941-.641zM45.791 40.417a3.055 3.055 0 0 1 2.47 0c.22.101-.532 1.071-1.623 1.544a3.421 3.421 0 0 1-2.38.059c.128-.357.331-.684.595-.96.264-.276.584-.495.938-.643zM45.641 47.87c.375.197.703.471.962.803.26.331.444.713.542 1.12.055.232-1.186.245-2.239-.308a3.33 3.33 0 0 1-1.508-1.814 2.84 2.84 0 0 1 2.243.198zM51.3 29.448c.377.197.705.471.965.803.26.331.446.713.544 1.12.056.229-1.186.241-2.239-.311a3.313 3.313 0 0 1-1.508-1.815 2.81 2.81 0 0 1 2.239.203zM46.143 24.753c.426.01.844.11 1.229.29.384.18.725.438 1.001.756.155.181-.945.742-2.148.717a3.384 3.384 0 0 1-2.178-.95 2.77 2.77 0 0 1 .96-.626c.361-.14.748-.204 1.136-.188zM61.027 39.148a2.902 2.902 0 0 1 .37-2.405c.128-.198 1 .67 1.322 1.797a3.262 3.262 0 0 1-.279 2.325 2.769 2.769 0 0 1-.891-.712 2.711 2.711 0 0 1-.522-1.005zM59.942 24.584c.02-.419.131-.828.325-1.201.194-.373.467-.702.8-.963.185-.148.73.949.675 2.11a3.296 3.296 0 0 1-1.023 2.108 2.741 2.741 0 0 1-.606-.947 2.7 2.7 0 0 1-.171-1.107zM56.034 31.42a3.077 3.077 0 0 1 2.474 0c.215.097-.537 1.067-1.624 1.544a3.434 3.434 0 0 1-2.384.059c.128-.358.33-.685.594-.96.265-.277.584-.496.94-.643z" fill="#fff"/></svg>