<svg width="100" height="100" fill="none" xmlns="http://www.w3.org/2000/svg"><circle cx="50" cy="50" r="50" fill="#B08D4E"/><path d="M50.912 20.653a46.808 46.808 0 0 0-7.281-.204c-3.73.182-7.298.204-10.522 2.463a7.938 7.938 0 0 0-3.038 4.145 8.187 8.187 0 0 0 .091 5.193c.678 1.795 1.932 3.192 2.265 5.135.353 2.051 0 4.146.02 6.21 0 .76-.719 1.267-1.262 1.804-1.052 1.037-2.045 2.138-3.08 3.197-.447.433-.948.663-.843 1.379.21 1.6 1.819 1.674 2.74 2.602.301.303.5.697.568 1.124.068.428.002.867-.189 1.252-.24.582-.522 1.25-.248 1.818.274.568.939.785 1.111 1.357.173.573-.18 1.097-.03 1.618.257.867 1.453.867 1.882 1.513a6.38 6.38 0 0 1 .82 2.863c.178 2.667 1.545 3.855 4.008 3.534 1.3-.173 2.559-.728 3.825-1.14 2.446-.803 4.925-1.063 4.828 2.26-.084 2.78.03 5.564 0 8.344-.046 2.701-1.544 6.475 2.458 6.453 2.269 0 12.951-.434 13.515-2.203.08-.362.057-.74-.067-1.089-.808-3.198-1.615-6.394-2.42-9.589-.253-.997-1.179-2.78-.215-3.604.842-.715 1.873.074 2.748.308 1.074.25 2.174.361 3.275.33 7.361.026 9.558-3.084 11.137-10.409.623-2.888-.893-5.33-3.128-7.06-.841-.66-1.89-1.024-2.803-1.588-1.073-.663-1.288-1.335-1.347-2.632-.1-2.26.842-4.454 1.053-6.64a15.27 15.27 0 0 0-.741-6.158c-1.379-4.117-4.261-7.516-8.035-9.477-3.371-1.735-7.222-2.693-11.095-3.11z" fill="#CDB78F"/><path d="M43.614 82.792c.534-3.817.808-7.763.896-9.346.282-4.892-.913-5.703-5.383-4.242-1.393.434-1.965.868-3.392 1.054-2.702.356-4.21-.954-4.394-3.873-.085-1.249-.674-3.864-1.831-4.593-.375-.234-.792-.381-1.166-.615a.788.788 0 0 1-.295-.273.889.889 0 0 1-.08-.36c-.025-.69.186-1.44-.16-2.026-.345-.585-1.043-.785-1.262-1.388a1.538 1.538 0 0 1 0-.746c.13-.733.635-1.3.648-2.051a2.266 2.266 0 0 0-.446-1.453c-.501-.633-1.22-.772-1.823-1.214-.526-.382-1.203-1.058-1.334-1.735-.13-.677.446-1.132.842-1.544 1.14-1.162 2.226-2.372 3.388-3.513.594-.585 1.397-1.145 1.385-1.982-.042-2.602.993-6.618-.842-8.756a9.166 9.166 0 0 1-1.87-3.218 9.367 9.367 0 0 1-.453-3.721 9.456 9.456 0 0 1 1.156-3.954A9.152 9.152 0 0 1 29.91 20.2c8.418-5.88 23.107-5.109 29.26 3.904 2.206 3.235 3.03 7.316 2.812 11.276-.181 3.3-1.187 6.765-3.679 8.843-3.051 2.541-7.635 2.311-11.095.407a11.214 11.214 0 0 1-4.996-5.373c-1.448-3.513-1.317-8.24 2.311-10.366 4.158-2.441 9.007 1.631 9.626 5.864.98 6.735-3.645 13.254-2.9 20.002.248 2.238 1.262 4.307 2.374 6.254" stroke="#fff" stroke-width="1.5" stroke-linecap="round" stroke-linejoin="round"/><path d="M46.936 50.713a4.26 4.26 0 0 0-1.825-.123 4.306 4.306 0 0 0-1.715.656c-.29.19.985 1.496 2.643 1.982a4.74 4.74 0 0 0 3.422-.408 4.103 4.103 0 0 0-1.046-1.33 3.96 3.96 0 0 0-1.48-.777zM46.935 56.458a4.316 4.316 0 0 0-1.718.64 4.46 4.46 0 0 0-1.317 1.303c-.194.3 1.482.967 3.19.733a4.824 4.824 0 0 0 2.98-1.782 3.984 3.984 0 0 0-1.476-.788 3.91 3.91 0 0 0-1.66-.106zM54.77 50.504a4.326 4.326 0 0 1 1.665-.78 4.258 4.258 0 0 1 1.83-.014c.336.074-.422 1.76-1.79 2.82a4.74 4.74 0 0 1-3.346.866 4.234 4.234 0 0 1 .525-1.624c.282-.498.663-.93 1.117-1.268zM56.753 55.88a4.25 4.25 0 0 1 1.827-.03 4.311 4.311 0 0 1 1.68.742c.281.208-1.053 1.444-2.732 1.847a4.743 4.743 0 0 1-3.401-.581c.28-.5.657-.934 1.11-1.275.452-.34.969-.58 1.516-.703z" stroke="#fff" stroke-width="1.5" stroke-linecap="round" stroke-linejoin="round"/></svg>