<svg width="36" height="60" fill="none" xmlns="http://www.w3.org/2000/svg"><path d="M20.015 30.36c.19 0 2.72 9.196-2.277 15.966-.844 1.16-3.227 4.386-6.833 4.555-5.145.253-8.604-5.905-9.11-6.833-3.69-6.833-.653-14.342 0-15.966 2.067-5.125 7.697-13.476 15.964-13.687C27.607 14.142 36 25.615 36 34.915c0 13.794-17.974 25.352-18.241 25.077.063.064 3.395-2.235 6.832-6.833 3.438-4.619 9.237-12.38 6.833-20.521-1.35-4.619-5.23-10.44-11.409-11.41-.548-.084-5.166-.738-9.11 2.278-5.778 4.387-6.437 12.435-6.437 13.838 0 1.872 1.941 8.576 5.61 9.356 3.227.696 7.365-4.508 7.66-4.95 3.521-5.231 2.13-11.369 2.277-11.39zM25.773 6.341c-.19 5.547-7.275 7.065-11.345 5.547-3.543-1.519-5.061-6.074-2.53-9.111 2.53-3.543 8.097-3.543 11.703-.865 1.37 1.139 2.193 2.72 2.172 4.43z" fill="#232323"/></svg>